<svg width="17" height="18" viewBox="0 0 17 18" fill="none" xmlns="http://www.w3.org/2000/svg">
<path fill-rule="evenodd" clip-rule="evenodd" d="M2.83594 6.69808C2.83594 5.62228 3.70805 4.75016 4.78385 4.75016H12.2214C13.2972 4.75016 14.1693 5.62227 14.1693 6.69808V12.7189C14.1693 13.7947 13.2972 14.6668 12.2214 14.6668H4.78385C3.70805 14.6668 2.83594 13.7947 2.83594 12.7189V6.69808ZM4.78385 5.81266C4.29485 5.81266 3.89844 6.20908 3.89844 6.69808V12.7189C3.89844 13.2079 4.29485 13.6043 4.78385 13.6043H12.2214C12.7104 13.6043 13.1068 13.2079 13.1068 12.7189V6.69808C13.1068 6.20908 12.7104 5.81266 12.2214 5.81266H4.78385Z" fill="#221E1F"/>
<path fill-rule="evenodd" clip-rule="evenodd" d="M5.66927 3.3335C5.96267 3.3335 6.20052 3.57134 6.20052 3.86475V6.34391C6.20052 6.63731 5.96267 6.87516 5.66927 6.87516C5.37587 6.87516 5.13802 6.63731 5.13802 6.34391V3.86475C5.13802 3.57134 5.37587 3.3335 5.66927 3.3335Z" fill="#221E1F"/>
<path fill-rule="evenodd" clip-rule="evenodd" d="M11.3359 3.3335C11.6293 3.3335 11.8672 3.57134 11.8672 3.86475V6.34391C11.8672 6.63731 11.6293 6.87516 11.3359 6.87516C11.0425 6.87516 10.8047 6.63731 10.8047 6.34391V3.86475C10.8047 3.57134 11.0425 3.3335 11.3359 3.3335Z" fill="#221E1F"/>
<path fill-rule="evenodd" clip-rule="evenodd" d="M4.96094 8.11475C4.96094 7.82134 5.19879 7.5835 5.49219 7.5835H11.513C11.8064 7.5835 12.0443 7.82134 12.0443 8.11475C12.0443 8.40815 11.8064 8.646 11.513 8.646H5.49219C5.19879 8.646 4.96094 8.40815 4.96094 8.11475Z" fill="#221E1F"/>
</svg>
