<svg width="20" height="20" viewBox="0 0 20 20" fill="none" xmlns="http://www.w3.org/2000/svg">
<path fill-rule="evenodd" clip-rule="evenodd" d="M10.0026 4.58301C7.01106 4.58301 4.58594 7.00813 4.58594 9.99967C4.58594 12.9912 7.01106 15.4163 10.0026 15.4163C12.9941 15.4163 15.4193 12.9912 15.4193 9.99967C15.4193 7.00813 12.9941 4.58301 10.0026 4.58301ZM3.33594 9.99967C3.33594 6.31778 6.32071 3.33301 10.0026 3.33301C13.6845 3.33301 16.6693 6.31778 16.6693 9.99967C16.6693 13.6816 13.6845 16.6663 10.0026 16.6663C6.32071 16.6663 3.33594 13.6816 3.33594 9.99967Z" fill="black"/>
<path fill-rule="evenodd" clip-rule="evenodd" d="M10.0026 6.04134C10.3478 6.04134 10.6276 6.32116 10.6276 6.66634V9.74079L12.1112 11.2244C12.3553 11.4685 12.3553 11.8642 12.1112 12.1083C11.8671 12.3524 11.4714 12.3524 11.2273 12.1083L9.3776 10.2586V6.66634C9.3776 6.32116 9.65743 6.04134 10.0026 6.04134Z" fill="black"/>
</svg>
