<svg width="54" height="53" viewBox="0 0 54 53" fill="none" xmlns="http://www.w3.org/2000/svg">
<rect x="0.5" width="53" height="53" rx="26.5" fill="white"/>
<rect x="9" y="8.5" width="36" height="36" rx="18" fill="white"/>
<path fill-rule="evenodd" clip-rule="evenodd" d="M40.6017 8.5C43.0292 8.5 45 10.4709 45 12.8983V40.1017C45 42.5291 43.0291 44.5 40.6017 44.5H13.3983C10.9709 44.5 9 42.5291 9 40.1017V12.8983C9 10.4709 10.9708 8.5 13.3983 8.5H40.6017V8.5ZM27 14.1953C23.6583 14.1953 23.2392 14.2094 21.9268 14.2694C20.6171 14.3291 19.7227 14.5371 18.9399 14.8413C18.1308 15.1558 17.4446 15.5765 16.7605 16.2605C16.0765 16.9446 15.6557 17.6309 15.3413 18.4399C15.0371 19.2227 14.8291 20.1171 14.7693 21.4268C14.7094 22.7392 14.6953 23.1583 14.6953 26.5C14.6953 29.8417 14.7094 30.2608 14.7693 31.5732C14.8291 32.8829 15.0371 33.7773 15.3413 34.5601C15.6557 35.3691 16.0765 36.0554 16.7605 36.7395C17.4446 37.4235 18.1308 37.8443 18.9399 38.1587C19.7227 38.4629 20.6171 38.6709 21.9268 38.7306C23.2392 38.7906 23.6583 38.8047 27 38.8047C30.3417 38.8047 30.7608 38.7906 32.0732 38.7306C33.3829 38.6709 34.2773 38.4629 35.0601 38.1587C35.8691 37.8443 36.5554 37.4235 37.2395 36.7395C37.9235 36.0554 38.3443 35.3691 38.6587 34.5601C38.9629 33.7773 39.1709 32.8829 39.2306 31.5732C39.2906 30.2608 39.3047 29.8417 39.3047 26.5C39.3047 23.1583 39.2906 22.7392 39.2306 21.4268C39.1709 20.1171 38.9629 19.2227 38.6587 18.4399C38.3443 17.6309 37.9235 16.9446 37.2395 16.2605C36.5554 15.5765 35.8691 15.1558 35.0601 14.8413C34.2773 14.5371 33.3829 14.3291 32.0732 14.2694C30.7608 14.2094 30.3417 14.1953 27 14.1953ZM27 16.4124C30.2855 16.4124 30.6747 16.4249 31.9721 16.4841C33.1718 16.5389 33.8233 16.7394 34.257 16.9078C34.8313 17.131 35.2412 17.3977 35.6718 17.8282C36.1024 18.2588 36.369 18.6687 36.5922 19.243C36.7607 19.6767 36.9612 20.3282 37.0159 21.5279C37.0751 22.8253 37.0877 23.2145 37.0877 26.5C37.0877 29.7855 37.0751 30.1747 37.0159 31.4721C36.9612 32.6718 36.7607 33.3233 36.5922 33.757C36.369 34.3313 36.1024 34.7412 35.6718 35.1718C35.2412 35.6024 34.8313 35.869 34.257 36.0922C33.8233 36.2607 33.1718 36.4612 31.9721 36.5159C30.6749 36.5751 30.2857 36.5877 27 36.5877C23.7143 36.5877 23.3252 36.5751 22.0279 36.5159C20.8282 36.4612 20.1767 36.2607 19.743 36.0922C19.1687 35.869 18.7588 35.6024 18.3282 35.1718C17.8976 34.7412 17.6309 34.3313 17.4078 33.757C17.2393 33.3233 17.0388 32.6718 16.9841 31.4721C16.9249 30.1747 16.9123 29.7855 16.9123 26.5C16.9123 23.2145 16.9249 22.8253 16.9841 21.5279C17.0388 20.3282 17.2393 19.6767 17.4078 19.243C17.6309 18.6687 17.8976 18.2588 18.3282 17.8282C18.7588 17.3977 19.1687 17.131 19.743 16.9078C20.1767 16.7394 20.8282 16.5389 22.0279 16.4841C23.3253 16.4249 23.7145 16.4124 27 16.4124ZM27 20.1814C23.5103 20.1814 20.6814 23.0103 20.6814 26.5C20.6814 29.9897 23.5103 32.8186 27 32.8186C30.4897 32.8186 33.3186 29.9897 33.3186 26.5C33.3186 23.0103 30.4897 20.1814 27 20.1814ZM27 30.6015C24.7347 30.6015 22.8985 28.7653 22.8985 26.5C22.8985 24.2347 24.7347 22.3985 27 22.3985C29.2653 22.3985 31.1015 24.2347 31.1015 26.5C31.1015 28.7653 29.2653 30.6015 27 30.6015ZM35.0449 19.9318C35.0449 20.7472 34.3837 21.4082 33.5682 21.4082C32.7528 21.4082 32.0917 20.7472 32.0917 19.9318C32.0917 19.1163 32.7528 18.4552 33.5682 18.4552C34.3837 18.4552 35.0449 19.1163 35.0449 19.9318Z" fill="#221E1F"/>
</svg>
