<svg width="20" height="20" viewBox="0 0 20 20" fill="none" xmlns="http://www.w3.org/2000/svg">
<path fill-rule="evenodd" clip-rule="evenodd" d="M10.3969 4.94707C8.06563 4.94707 5.99687 6.88997 5.99687 9.34707C5.99687 9.99489 6.25231 10.6975 6.6904 11.416C7.1257 12.1298 7.71557 12.8172 8.32114 13.4228C8.92469 14.0264 9.53054 14.5355 9.98659 14.8942C10.1439 15.018 10.2828 15.1234 10.3969 15.2081C10.511 15.1234 10.6499 15.018 10.8072 14.8942C11.2632 14.5355 11.8691 14.0264 12.4726 13.4228C13.0782 12.8172 13.668 12.1298 14.1033 11.416C14.5414 10.6975 14.7969 9.99489 14.7969 9.34707C14.7969 6.88997 12.7281 4.94707 10.3969 4.94707ZM10.3969 15.9471C10.0595 16.4432 10.0592 16.443 10.0592 16.443L10.0577 16.442L10.0541 16.4396L10.0417 16.431C10.031 16.4236 10.0158 16.4131 9.99621 16.3993C9.95709 16.3719 9.90075 16.3319 9.82962 16.2803C9.68743 16.1771 9.48586 16.0271 9.24465 15.8374C8.76321 15.4587 8.11906 14.9178 7.47261 14.2713C6.82818 13.6269 6.16805 12.8643 5.66585 12.0407C5.16644 11.2217 4.79688 10.2993 4.79688 9.34707C4.79688 6.20417 7.42618 3.74707 10.3969 3.74707C13.3676 3.74707 15.9969 6.20417 15.9969 9.34707C15.9969 10.2993 15.6273 11.2217 15.1279 12.0407C14.6257 12.8643 13.9656 13.6269 13.3211 14.2713C12.6747 14.9178 12.0305 15.4587 11.5491 15.8374C11.3079 16.0271 11.1063 16.1771 10.9641 16.2803C10.893 16.3319 10.8367 16.3719 10.7975 16.3993C10.778 16.4131 10.7627 16.4236 10.7521 16.431L10.7396 16.4396L10.736 16.442L10.7349 16.4428C10.7349 16.4428 10.7343 16.4432 10.3969 15.9471ZM10.3969 15.9471L10.7349 16.4428C10.5313 16.5812 10.2628 16.5815 10.0592 16.443L10.3969 15.9471Z" fill="black"/>
<path fill-rule="evenodd" clip-rule="evenodd" d="M10.3969 8.14707C9.73413 8.14707 9.19687 8.68433 9.19687 9.34707C9.19687 10.0098 9.73413 10.5471 10.3969 10.5471C11.0596 10.5471 11.5969 10.0098 11.5969 9.34707C11.5969 8.68433 11.0596 8.14707 10.3969 8.14707ZM7.99687 9.34707C7.99687 8.02159 9.07139 6.94707 10.3969 6.94707C11.7224 6.94707 12.7969 8.02159 12.7969 9.34707C12.7969 10.6726 11.7224 11.7471 10.3969 11.7471C9.07139 11.7471 7.99687 10.6726 7.99687 9.34707Z" fill="black"/>
</svg>
