<svg width="20" height="20" viewBox="0 0 20 20" fill="none" xmlns="http://www.w3.org/2000/svg">
<path fill-rule="evenodd" clip-rule="evenodd" d="M5.56825 5.83633C5.91213 5.80643 6.21514 6.06096 6.24505 6.40484L6.94601 14.4659C6.99281 15.0042 7.44344 15.4173 7.98376 15.4173H12.011C12.5514 15.4173 13.002 15.0042 13.0488 14.4659L13.7497 6.40484C13.7796 6.06096 14.0827 5.80643 14.4265 5.83633C14.7704 5.86624 15.0249 6.16925 14.995 6.51313L14.2941 14.5742C14.1911 15.7584 13.1997 16.6673 12.011 16.6673H7.98376C6.79505 16.6673 5.80368 15.7584 5.70071 14.5742L4.99975 6.51313C4.96984 6.16925 5.22437 5.86624 5.56825 5.83633Z" fill="#221E1F"/>
<path fill-rule="evenodd" clip-rule="evenodd" d="M9.78906 4.58398C9.21377 4.58398 8.7474 5.05035 8.7474 5.62565V6.25065C8.7474 6.59583 8.46757 6.87565 8.1224 6.87565C7.77722 6.87565 7.4974 6.59583 7.4974 6.25065V5.62565C7.4974 4.36 8.52341 3.33398 9.78906 3.33398H10.2057C11.4714 3.33398 12.4974 4.36 12.4974 5.62565V6.25065C12.4974 6.59583 12.2176 6.87565 11.8724 6.87565C11.5272 6.87565 11.2474 6.59583 11.2474 6.25065V5.62565C11.2474 5.05035 10.781 4.58398 10.2057 4.58398H9.78906Z" fill="#221E1F"/>
<path fill-rule="evenodd" clip-rule="evenodd" d="M3.53906 6.45898C3.53906 6.11381 3.81888 5.83398 4.16406 5.83398H15.8307C16.1759 5.83398 16.4557 6.11381 16.4557 6.45898C16.4557 6.80416 16.1759 7.08398 15.8307 7.08398H4.16406C3.81888 7.08398 3.53906 6.80416 3.53906 6.45898Z" fill="#221E1F"/>
</svg>
