<svg width="54" height="53" viewBox="0 0 54 53" fill="none" xmlns="http://www.w3.org/2000/svg">
<rect x="0.5" width="53" height="53" rx="26.5" fill="white"/>
<rect x="9" y="8.5" width="36" height="36" rx="18" fill="white"/>
<path fill-rule="evenodd" clip-rule="evenodd" d="M40.6017 8.5C43.0292 8.5 45 10.4709 45 12.8983V40.1017C45 42.5291 43.0291 44.5 40.6017 44.5H13.3983C10.9709 44.5 9 42.5291 9 40.1017V12.8983C9 10.4709 10.9708 8.5 13.3983 8.5L40.6017 8.5ZM22.7474 38.3508C32.3056 38.3508 37.5319 30.4305 37.5319 23.5663C37.5319 23.34 37.5319 23.1137 37.5211 22.8982C38.5341 22.1654 39.4177 21.2495 40.1181 20.2042C39.1914 20.6137 38.1893 20.8939 37.1332 21.0232C38.2108 20.3766 39.0298 19.3637 39.4177 18.146C38.4156 18.7387 37.3056 19.1698 36.1203 19.4068C35.172 18.3939 33.825 17.7689 32.3272 17.7689C29.4608 17.7689 27.1332 20.0965 27.1332 22.9629C27.1332 23.3724 27.1763 23.771 27.2733 24.1482C22.9522 23.9327 19.1268 21.8637 16.5621 18.7172C16.1203 19.4823 15.8617 20.3766 15.8617 21.3249C15.8617 23.1245 16.7776 24.7193 18.1785 25.6461C17.3272 25.6245 16.5298 25.3874 15.8293 24.9995V25.0641C15.8293 27.5857 17.6181 29.6762 19.9996 30.1611C19.5686 30.2796 19.1052 30.3443 18.6311 30.3443C18.297 30.3443 17.9738 30.312 17.6505 30.2473C18.3078 32.3163 20.2259 33.8141 22.4996 33.8572C20.7216 35.2474 18.4802 36.0771 16.0449 36.0771C15.6246 36.0771 15.2151 36.0555 14.8056 36.0016C17.0793 37.4887 19.8164 38.3508 22.7474 38.3508Z" fill="#221E1F"/>
<rect x="9" y="8.5" width="36" height="36" rx="18" fill="white"/>
<path fill-rule="evenodd" clip-rule="evenodd" d="M40.6017 8.5C43.0292 8.5 45 10.4709 45 12.8983V40.1017C45 42.5291 43.0291 44.5 40.6017 44.5H13.3983C10.9709 44.5 9 42.5291 9 40.1017V12.8983C9 10.4709 10.9708 8.5 13.3983 8.5L40.6017 8.5ZM22.7474 38.3508C32.3056 38.3508 37.5319 30.4305 37.5319 23.5663C37.5319 23.34 37.5319 23.1137 37.5211 22.8982C38.5341 22.1654 39.4177 21.2495 40.1181 20.2042C39.1914 20.6137 38.1893 20.8939 37.1332 21.0232C38.2108 20.3766 39.0298 19.3637 39.4177 18.146C38.4156 18.7387 37.3056 19.1698 36.1203 19.4068C35.172 18.3939 33.825 17.7689 32.3272 17.7689C29.4608 17.7689 27.1332 20.0965 27.1332 22.9629C27.1332 23.3724 27.1763 23.771 27.2733 24.1482C22.9522 23.9327 19.1268 21.8637 16.5621 18.7172C16.1203 19.4823 15.8617 20.3766 15.8617 21.3249C15.8617 23.1245 16.7776 24.7193 18.1785 25.6461C17.3272 25.6245 16.5298 25.3874 15.8293 24.9995V25.0641C15.8293 27.5857 17.6181 29.6762 19.9996 30.1611C19.5686 30.2796 19.1052 30.3443 18.6311 30.3443C18.297 30.3443 17.9738 30.312 17.6505 30.2473C18.3078 32.3163 20.2259 33.8141 22.4996 33.8572C20.7216 35.2474 18.4802 36.0771 16.0449 36.0771C15.6246 36.0771 15.2151 36.0555 14.8056 36.0016C17.0793 37.4887 19.8164 38.3508 22.7474 38.3508Z" fill="#221E1F"/>
</svg>
